<svg xmlns="http://www.w3.org/2000/svg" enable-background="new 0 0 512 512" viewBox="0 0 512 512"><path fill="#a1d51c" d="M465.004,189.52c0,0,60.767-171.361-191.576-171.424
				C273.428,18.096,284.163,260.994,465.004,189.52z"/><path d="M465.007,189.514c-2.371,0.938-4.716,1.824-7.035,2.658c8.207-37.285,18.265-155.941-183.351-160.188
				c-0.964-8.676-1.199-13.888-1.199-13.888C525.768,18.148,465.007,189.514,465.007,189.514z" opacity=".1"/><path fill="#a1d51c" d="M101.35 89.14c0 0-178.786 33.054-52.669 251.621C48.681 340.761 253.669 210.016 101.35 89.14zM196.245 454.263c0 0 118.019 138.306 244.245-80.198C440.49 374.066 224.768 261.913 196.245 454.263z"/><path fill="#fff" d="M27.7 248.846c-2.013-7.537-3.572-14.961-4.633-22.063-.265-1.779.962-3.438 2.74-3.702 1.781-.272 3.435.962 3.702 2.74 1.025 6.86 2.534 14.043 4.486 21.345.463 1.738-.57 3.522-2.308 3.987C29.94 251.615 28.163 250.579 27.7 248.846zM24.621 210.122c-1.779 0-3.231-1.427-3.257-3.211-.059-4.181.046-7.893.323-11.351.145-1.791 1.69-3.153 3.506-2.987 1.794.142 3.13 1.712 2.987 3.506-.26 3.252-.359 6.766-.303 10.74.025 1.799-1.412 3.277-3.211 3.303C24.652 210.122 24.637 210.122 24.621 210.122z"/><path d="M420.048 30.606c16.966 9.486 31.068 21.32 41.912 35.172 1.108 1.414 3.153 1.667 4.572.557 1.417-1.109 1.667-3.155.557-4.572-11.381-14.536-26.139-26.931-43.861-36.841-1.567-.878-3.555-.318-4.432 1.252C417.918 27.743 418.478 29.728 420.048 30.606zM475.764 87.876c.791 1.639 2.749 2.293 4.348 1.524 1.621-.781 2.303-2.725 1.524-4.348-1.265-2.628-2.7-5.338-4.384-8.282-.896-1.562-2.883-2.104-4.445-1.209-1.56.893-2.102 2.883-1.209 4.445C473.207 82.813 474.568 85.388 475.764 87.876zM511.745 260.922c-11.848-26.921-26.957-50.976-43.407-72.189 3.368-10.735 17.719-64.257-14.411-109.752-30.042-42.538-90.888-64.118-180.85-64.141-1.842 0-3.335 1.534-3.254 3.402.226 5.127 6.354 126.142 76.011 171.293 35.954 23.309 78.032 19.128 117.867 3.816 15.943 20.666 30.577 44.057 42.081 70.197.719 1.633 2.629 2.393 4.295 1.669C511.722 264.492 512.468 262.569 511.745 260.922zM349.388 184.077c-60.512-39.21-71.293-142.584-72.83-162.711 85.764.562 143.63 21.185 172.011 61.319 26.938 38.095 18.87 83.578 14.755 99.701C403.239 108.145 328.236 70.824 327.254 70.345c-1.616-.786-3.567-.122-4.356 1.496-.789 1.616-.12 3.567 1.496 4.356.971.475 75.803 37.722 135.087 111.783C415.745 204.353 378.712 203.081 349.388 184.077zM427.081 426.473c-2.125 2.918-4.112 5.555-6.076 8.061-1.299 1.659-.732 3.464.491 4.485 1.315 1.098 3.388 1.291 4.717-.572 1.985-2.537 3.992-5.201 6.135-8.142 1.058-1.453.738-3.491-.718-4.549C430.182 424.702 428.144 425.022 427.081 426.473zM408.992 449.179c-12.185 14.01-24.768 25.905-37.404 35.355-1.44 1.076-1.733 3.12-.656 4.56 1.075 1.439 3.12 1.733 4.56.656 13.002-9.727 25.928-21.938 38.416-36.297 1.181-1.356 1.036-3.415-.321-4.595C412.229 447.673 410.17 447.823 408.992 449.179zM104.798 88.055c9.925-24.147 22.863-48.519 39.746-71.548 1.064-1.45.751-3.488-.7-4.552-1.445-1.066-3.491-.751-4.552.7-17.391 23.721-30.67 48.834-40.816 73.686-10.972 2.449-64.507 16.78-87.844 67.359-21.819 47.284-10.084 110.768 34.877 188.689.919 1.586 2.991 2.126 4.572 1.117 4.331-2.761 106.066-68.573 110.34-151.472C162.361 154.437 143.618 119.468 104.798 88.055zM153.918 191.683c-3.702 72.011-87.835 133.032-104.496 144.429C7.026 261.556-4.048 201.133 16.519 156.485c19.522-42.377 62.947-58.13 78.967-62.628-34.255 89.155-29.073 172.77-28.997 173.859.124 1.78 1.659 3.146 3.473 3.025 1.794-.125 3.15-1.679 3.025-3.473-.074-1.079-5.203-84.526 29.269-172.874C138.301 124.082 155.712 156.79 153.918 191.683zM441.64 371.176c-4.552-2.369-112.43-57.571-186.349-19.821-33.532 17.119-54.445 50.837-62.238 100.169-25.87 3.474-53.445 4.453-81.834 1.345-1.763-.226-3.397 1.092-3.59 2.883-.196 1.786 1.094 3.394 2.883 3.59 28.034 3.069 55.901 2.356 84.197-1.516 24.481 26.651 62.986 46.028 102.279 42.418 51.859-4.748 100.972-46.65 145.971-124.549C443.892 374.083 443.279 372.028 441.64 371.176zM296.458 493.751c-46.453 4.303-81.843-25.472-93.74-37.088 94.337-14.912 164.177-61.192 165.082-61.802 1.491-1.005 1.888-3.03.883-4.522-1.01-1.494-3.033-1.883-4.521-.883-.897.604-70.575 46.788-164.351 61.1 7.689-46.065 27.312-77.5 58.428-93.394 64.215-32.796 159.13 9.554 177.331 18.284C392.199 449.439 345.406 489.239 296.458 493.751z"/></svg>