<svg xmlns="http://www.w3.org/2000/svg" width="88" height="88" data-name="Layer 1" viewBox="0 0 88 88"><path d="M43.9,22.41a8.64,8.64,0,0,0-8.64,8.64V57a8.64,8.64,0,0,0,17.28,0V31.05A8.65,8.65,0,0,0,43.9,22.41ZM50.4,57a6.51,6.51,0,1,1-13,0V31.05a6.51,6.51,0,1,1,13,0Z"/><path d="M65.83,32H63.76V28.63A19.23,19.23,0,0,0,44.55,9.42H43.24A19.23,19.23,0,0,0,24,28.63V32H22.17a5.8,5.8,0,0,0-5.92,5.66V50.32A5.8,5.8,0,0,0,22.17,56H24v3.39A19.23,19.23,0,0,0,43.24,78.58h1.31A19.23,19.23,0,0,0,63.76,59.37V55.94h2.07a5.8,5.8,0,0,0,5.92-5.66V37.64A5.8,5.8,0,0,0,65.83,32ZM22.17,53.85a3.67,3.67,0,0,1-3.78-3.53V37.68a3.67,3.67,0,0,1,3.78-3.53H24v19.7Zm39.46,5.52A17.09,17.09,0,0,1,44.55,76.44H43.24A17.09,17.09,0,0,1,26.17,59.37V28.63A17.09,17.09,0,0,1,43.24,11.56h1.31A17.09,17.09,0,0,1,61.63,28.63Zm8-9.09a3.66,3.66,0,0,1-3.78,3.53H63.76V34.11h2.07a3.67,3.67,0,0,1,3.78,3.53Z"/></svg>