<svg xmlns="http://www.w3.org/2000/svg" id="Layer_1" enable-background="new 0 0 110 110" viewBox="0 0 110 110"><path fill="#ededed" d="M16.68466,67.0468674c3.5742092,0.155365,2.3310165,2.6417465,2.3310165,2.6417465
			c-1.3985558,3.8852081,1.3985577,5.1281281,1.3985577,5.1281281l-0.0243759,0.0878677
			c-0.4060936,1.4620361-0.2046547,3.0092621,0.4808292,4.3630905c0.8743324,1.7261581,0.7867374,3.474823,0.7867374,3.474823
			c-2.9527473,12.8980103,9.3240681,8.7026062,9.3240681,8.7026062c11.4999905-2.3310165,11.6553555,3.2632141,11.6553555,3.2632141
			v7.9220276h36.8301773V93.465416c-1.6340179-19.0981598,6.8379517-24.242897,6.8379517-24.242897
			c13.2090073-11.1889915,9.9458008-30.1483955,9.9458008-30.1483955c-0.043396-0.2716217-0.0883942-0.5416336-0.1355438-0.8084335
			C93.1782913,21.6094437,79.2554092,9.1314564,62.4143295,7.571909c-0.7612877-0.0701823-1.5107918-0.122149-2.2482452-0.1580439
			c-15.4374275-0.7441468-29.8834667,7.955246-36.4591751,21.9418831c-0.662981,1.4106121-1.1869373,2.7596111-1.5156155,3.9832478
			c-1.1314888,4.2109413-1.1906891,8.6147461-0.4559174,12.9130096c0.4141293,2.4210243-0.3886814,3.5450134-0.3886814,3.5450134
			l-7.4594164,11.6550827C11.866992,65.9587708,16.68466,67.0468674,16.68466,67.0468674z"/><polygon fill="#304551" points="53.495 56.636 53.495 61.805 55.157 64.652 62.512 64.652 64.173 61.805 64.173 56.636"/><path fill="#fed35b" d="M75.9669342,36.3750839c0-10.1414909-8.7800903-18.2322063-19.1535454-17.085392
				c-7.7685089,0.8588314-14.096447,7.0628242-15.0887527,14.8154144
				c-1.0241127,8.0010834,3.4575768,15.0985489,10.174839,18.0314445c0.9601021,0.4192009,1.5926933,1.3507195,1.5926933,2.3983459
				v2.6519089h10.5614433v-2.6532669c0-1.043457,0.6262283-1.9757347,1.5827713-2.3926582
				C71.7159653,49.4909973,75.9669342,43.4306526,75.9669342,36.3750839z"/><path fill="#feda6f" d="M55.8191261,45.5227966c-4.449379-1.4349518-7.268074-5.8568344-6.544651-10.6410866
				c0.6460152-4.2723389,4.2001343-7.6308212,8.4989433-8.0672245c6.2540321-0.6348934,11.4636497,4.7687225,10.4943352,11.0759487
				c-0.5596085,3.6412773-3.2820511,6.5813866-6.7882576,7.7121277h-0.0000038
				c-1.7597237,0.5675049-3.6533165,0.5675049-5.4130402-0.0000038L55.8191261,45.5227966z"/><path fill="#dd584d" d="M65.0111847 55.7655792H52.5347595c-.6082039 0-1.1011276.4930916-1.1011276 1.1012955 0 .6078682.4929237 1.1009598 1.1011276 1.1009598h12.4764252c.6080322 0 1.1009598-.4930916 1.1009598-1.1009598C66.1121445 56.2586708 65.6192169 55.7655792 65.0111847 55.7655792zM65.0111847 59.6039352H52.5347595c-.6082039 0-1.1011276.4930954-1.1011276 1.1012993 0 .6078644.4929237 1.1009598 1.1011276 1.1009598h12.4764252c.6080322 0 1.1009598-.4930954 1.1009598-1.1009598C66.1121445 60.0970306 65.6192169 59.6039352 65.0111847 59.6039352zM82.2628708 35.8570824h-3.3579102c-.2963638 0-.5388718.2423401-.5388718.5385323 0 .2965279.2425079.538868.5388718.538868h3.3579102c.2963562 0 .5386963-.2423401.5386963-.538868C82.8015671 36.0994225 82.559227 35.8570824 82.2628708 35.8570824zM39.1798553 36.3956146c0-.2961922-.2423401-.5385323-.5387001-.5385323h-3.357914c-.29636 0-.538868.2423401-.538868.5385323 0 .2965279.2425079.538868.538868.538868h3.357914C38.9375153 36.9344826 39.1798553 36.6921425 39.1798553 36.3956146zM77.1845169 29.6946011c.1013107.2786903.4121475.42342.6906662.3221092l3.1552887-1.1487541c.2785263-.1013126.4234238-.4119778.3219452-.6903305-.1013107-.2783527-.4118118-.42342-.6903305-.3221092l-3.1554565 1.1487541C77.2281036 29.1055832 77.0832062 29.4162483 77.1845169 29.6946011zM39.6709251 42.7751923l-3.1554565 1.1484184c-.2783508.1013107-.42342.4119759-.3221092.6903305.1014824.2786903.4121475.42342.6906662.3221092l3.1554604-1.1484184c.2785187-.1013107.4232521-.4119759.3219376-.6906662C40.2601128 42.8186111 39.9494476 42.6738815 39.6709251 42.7751923zM77.1798096 20.9505348c-.1903381-.2268562-.5318069-.256813-.7588272-.0663071l-2.5721588 2.1585007c-.2271957.190506-.2571487.5317993-.0666428.7589931.190506.2268562.532135.256813.7589874.0663071l2.5725021-2.1585007C77.3405228 21.519022 77.3704834 21.1777267 77.1798096 20.9505348zM70.7871017 15.5864248c-.2564774-.1480961-.5875015-.0592384-.7356033.197238l-1.679039 2.9080696c-.148262.2564754-.0595703.5876713.1968994.7357674.256813.1484337.5880127.059576.7361069-.197237l1.679039-2.907732C71.1326065 16.0657177 71.0439148 15.7345219 70.7871017 15.5864248zM62.9452438 12.7322092c-.2916489-.0511608-.5723572.1454029-.6238556.4372196l-.5831299 3.3069201c-.0513268.2918167.1450691.572525.4368858.6240234.2919846.0514965.5728607-.1454048.6241913-.4372215l.5831299-3.3069181C63.43396 13.0644159 63.2373962 12.7837057 62.9452438 12.7322092zM54.6003647 12.7322092c-.2918167.0514965-.4883804.3322067-.4368858.6240234l.5831299 3.3069181c.0513268.2918167.3322067.488718.6238556.4372215.2921524-.0514984.4885483-.3322067.4372177-.6240234l-.5831261-3.3069201C55.1730576 12.8776121 54.8923492 12.6810484 54.6003647 12.7322092zM47.494442 15.7836628c-.148098-.2564764-.479126-.3453341-.735939-.197238-.2564735.148097-.3451614.4792929-.1970673.7361059l1.679039 2.907732c.148098.256813.4792938.3456707.7357712.1975746.2568092-.1484337.3455009-.4796295.1972351-.736105L47.494442 15.7836628zM41.1249619 20.8842278c-.2270241-.190506-.5684891-.1605492-.7591629.0666428-.1903343.2268562-.1603813.5681515.0664749.7586575l2.5724983 2.1585007c.2268562.190506.5684891.1605492.7588234-.0663071.1906738-.2271938.1607208-.5684872-.0664749-.7589931L41.1249619 20.8842278zM36.5154686 28.8679562l3.1552887 1.1487541c.2785225.1013107.5893555-.0434189.6906662-.3217716.1013145-.2786903-.0435867-.5893555-.3221092-.6906681l-3.1554565-1.1487541c-.2785225-.1013107-.589016.0437565-.6904984.3224449C36.0920486 28.4559784 36.2369461 28.7666435 36.5154686 28.8679562zM81.0304718 43.9236107l-3.1554565-1.1484184c-.2785187-.1013107-.5891876.0434189-.6904984.3221092-.1013107.2783546.0434189.5890198.3219452.6903305l3.1554565 1.1484184c.2785187.1013107.5891876-.0434189.6904984-.3217735C81.4538956 44.3355865 81.3088303 44.0249214 81.0304718 43.9236107z"/></svg>