<svg xmlns="http://www.w3.org/2000/svg" enable-background="new 0 0 100 100" viewBox="0 0 100 100"><path d="M95,36V20c0-3.3-2.7-6-6-6H57c-3.3,0-6,2.7-6,6v6H17c-3.3,0-6,2.7-6,6v40H7c-1.1,0-2,0.9-2,2c0,6.6,5.4,12,12,12h66
	c6.6,0,12-5.4,12-12c0-1.1-0.9-2-2-2h-4V42C92.3,42,95,39.3,95,36z M15,32c0-1.1,0.9-2,2-2h34v6c0,3.3,2.7,6,6,6h4v6
	c0,0.8,0.4,1.5,1.1,1.8c0.3,0.1,0.6,0.2,0.9,0.2c0.5,0,0.9-0.2,1.2-0.4l9.5-7.6H85v30H49v-8c0-5.5-3.2-10.2-7.8-12.5
	c1.7-1.6,2.8-3.9,2.8-6.5c0-5-4-9-9-9s-9,4-9,9c0,2.5,1.1,4.8,2.8,6.5c-4.6,2.3-7.8,7-7.8,12.5v8h-6V32z M35,54c5.5,0,10,4.5,10,10
	v8H25v-8C25,58.5,29.5,54,35,54z M30,45c0-2.8,2.2-5,5-5s5,2.2,5,5s-2.2,5-5,5S30,47.8,30,45z M90.8,76c-0.9,3.5-4,6-7.8,6H17
	c-3.7,0-6.9-2.5-7.8-6H90.8z M73,38c-0.5,0-0.9,0.1-1.2,0.4L65,43.8V40c0-1.1-0.9-2-2-2h-6c-1.1,0-2-0.9-2-2V20c0-1.1,0.9-2,2-2h32
	c1.1,0,2,0.9,2,2v16c0,1.1-0.9,2-2,2H73z M65,28c0,1.1-0.9,2-2,2s-2-0.9-2-2c0-1.1,0.9-2,2-2S65,26.9,65,28z M75,28c0,1.1-0.9,2-2,2
	s-2-0.9-2-2c0-1.1,0.9-2,2-2S75,26.9,75,28z M85,28c0,1.1-0.9,2-2,2s-2-0.9-2-2c0-1.1,0.9-2,2-2S85,26.9,85,28z"/></svg>