<svg xmlns="http://www.w3.org/2000/svg" enable-background="new 0 0 512 512" viewBox="0 0 512 512"><path d="M261.875 273.089c-.837-12.582-2.372-37.039-2.532-37.896-5.182-29.682-28.028-46.647-71.741-53.344-.611-2.078-2.015-3.86-3.936-4.9l-20.859-11.656-.23-5.732c10.65-8.839 18.681-21.908 22.774-37.184 6.435-.361 12.616-6.725 14.734-15.68 1.979-8.629-.388-16.806-5.548-20.265.594-2.198 1.165-4.38 1.681-6.584 8.517-36.365-1.775-58.922-33.368-73.137-16.188-7.284-39.185-11.393-56.817 10.391-.191.234-.007.183-.852.02-20.805-4.073-34.072 3.791-39.414 23.373-3.156 11.574-.618 31.958 3.112 45.989-5.203 3.464-7.564 11.626-5.525 20.233 2.113 8.878 8.268 15.235 14.673 15.641 4.232 15.791 12.598 29.132 23.711 37.972l-.416 4.903L79.66 177.237c-1.97 1.109-3.38 2.957-3.966 5.089-45.107 7.558-69.701 25.055-73.03 52.094-.065.599-1.005 21.774-1.782 39.058-.534 11.355 8.496 20.976 20.045 20.976h220.932C253.24 294.454 262.665 284.888 261.875 273.089zM182.341 185.75l-21.738 38.376c-.949 1.673-3.219 2.139-4.744.836l-20.665-17.553c3.593-5.16 22.263-31.969 25.857-37.131l20.106 11.235C182.792 182.398 183.108 184.416 182.341 185.75zM131.652 171.308c9.063 0 17.913-2.756 25.867-7.967l.109 2.734c-9.492 13.633-16.33 23.453-25.899 37.195l-25.261-37.092.195-2.306C114.401 168.74 122.951 171.308 131.652 171.308zM70.792 41.865c4.95-18.155 16.545-22.926 33.391-19.631 3.35.657 3.844.687 5.899-1.856 12.481-15.418 29.511-18.415 50.634-8.917 29.279 13.173 38.381 33.271 30.434 67.201-1.034 4.417-2.323 8.936-3.753 14.057-.447 1.62-1.246 1.62-1.574 1.604-1.007-.013-2.202-.839-2.41-1.665-1.048-4.165-2.207-7.739-3.231-10.892-2.08-6.412-3.722-11.477-3.476-18.169.16-4.256-4.094-7.308-7.938-5.703-14.884 6.155-43.324-.781-55.332-13.485-2.392-2.527-6.361-2.483-8.662.097-4.297 4.81-10.452 9.028-16.89 11.576-2.764 1.093-4.213 4.106-3.369 7.005 1.737 5.977.425 11.406-1.093 17.693-.727 3.008-1.477 6.115-2.003 9.791-.536 3.763-.999 5.675-2.029 5.675-.003 0-.005 0-.008 0h-.003c-1.05-.01-2.385-1.627-3.242-3.936-.587-1.575-1.17-3.39-1.734-5.369-.002-.006 0-.012-.003-.018-.001-.003-.003-.004-.004-.006C70.642 73.734 67.777 52.927 70.792 41.865zM82.556 119.042c-.323-1.34-1.627-2.202-3-1.948-4.376.773-9.453-4.508-11.136-11.578-1.4-5.916-.154-10.909 2.09-13.53.247.741.495 1.471.745 2.142 1.721 4.622 4.663 7.292 8.072 7.325.028 0 .056 0 .084 0 5.713 0 6.582-6.102 7.195-10.386.458-3.188 1.177-6.176 1.876-9.064 1.622-6.717 3.155-13.063 1.03-20.37-.084-.295.043-.613.287-.709 7.269-2.876 13.966-7.475 18.858-12.949.291-.331.72-.272.994.013 12.229 12.941 42.821 22.265 61.104 14.721.355-.161.762.262.747.697-.282 7.615 1.574 13.34 3.725 19.969 1.048 3.224 2.131 6.56 3.135 10.559.783 3.099 4.035 5.558 7.401 5.599 3.087.086 5.716-2.039 6.651-5.418l.573-2.056c2.164 2.713 3.33 7.78 2.028 13.459-1.686 7.122-6.839 12.44-11.164 11.581-1.381-.249-2.7.597-3.023 1.948-3.755 15.563-11.751 28.822-22.521 37.336-8.006 6.359-17.223 9.72-26.655 9.72-9 0-17.866-3.104-25.638-8.98C94.778 148.652 86.446 135.129 82.556 119.042zM82.198 181.786l20.762-11.505 25.252 37.113-20.683 17.589c-1.485 1.267-3.767.868-4.752-.839L80.993 186.05C80.202 184.706 80.594 182.686 82.198 181.786zM6.083 273.717c.046-1.029 1.687-37.731 1.752-38.697 2.999-24.344 25.969-40.293 68.191-47.468.149.375.262.768.464 1.111l21.769 38.069c2.627 4.566 8.693 5.569 12.639 2.222l20.798-17.686 20.785 17.656c3.987 3.413 10.08 2.309 12.654-2.23l21.731-38.364c.226-.394.406-.809.562-1.233 40.787 6.371 62.069 21.961 66.776 48.915.151 1.262 1.337 20.161 2.476 37.425.575 8.585-6.216 15.809-14.82 15.809H20.926C12.438 289.247 5.683 282.198 6.083 273.717zM472.218 409.616l-43.352-16.163-23.394-17.809c-.678-3.411-1.161-7.424-1.468-12.194 2.567-2.516 4.727-4.994 5.928-7.115 3.206-5.571 5.652-15.621 7.462-24.235 5.936-1.323 7.145-3.611 7.572-7.246.221-1.859.521-4.406 3.3-8.899 4.185-6.715 5.634-15.029 3.603-20.686-.849-2.364-2.246-4.147-4.102-5.278-.011-2.394-.147-32.08-.147-32.429 0-22.537-19.773-45.353-57.564-45.353-37.809 0-57.59 22.722-57.59 45.17 0 4.053-.105 25.105-.146 32.858-1.739 1.204-3.054 3.039-3.825 5.434-1.848 5.749-.402 13.709 3.694 20.292 2.86 4.554 3.148 7.099 3.359 8.957.428 3.777 1.699 5.76 7.132 7.038 2.471 12.125 4.841 19.895 7.422 24.375 1.274 2.22 3.601 4.839 6.344 7.484-.297 4.508-.769 8.474-1.412 11.812l-23.397 17.832-43.374 16.151c-23.284 8.675-38.925 31.189-38.925 56.021v25.305c0 11.126 9.064 20.177 20.203 20.177 216.284.001 25.114.014 241.397 0 11.141 0 20.205-9.051 20.205-20.177v-25.305C511.141 440.792 495.497 418.278 472.218 409.616zM426.034 397.841c.008.005.015.011.022.017.622.646 3.203 1.654 3.004 4.617-.219 3.303-3.408 3.696-6.374 5.766-1.546.892-1.753 3.049-.409 4.215l11.373 9.931c1.559 1.337 1.851 3.646.681 5.372-5.424 7.991 19.651-28.948-53.052 78.151h-.913c12.076-37.303 25.537-84.675 25.422-123.481L426.034 397.841zM365.64 505.91c-3.224-9.928-5.971-18.755-8.344-26.842.046-.353 6.259-48.277 8.703-67.042.092-.684-.097-1.378-.519-1.925l-4.907-6.371 9.693-7.875 9.67 7.846-4.971 6.481c-.404.527-.545 1.34-.476 2.019 1.428 11.353-.02-.056 8.693 66.987-2.332 7.989-5.061 16.775-8.296 26.721H365.64zM365.398 393.1c-3.713 3.016-20.08 16.312-23.351 18.97-1.524-11.197-2.227-21.432-2.127-30.891C342.457 382.365 361.298 391.181 365.398 393.1zM400.562 381.159c.1 9.434-.6 19.656-2.122 30.853l-23.32-18.92C375.396 392.963 396.179 383.203 400.562 381.159zM386.782 466.494c-11.631-89.484-4.863-36.515-7.026-54.001l4.226-5.51 13.58 11.019C395.295 432.436 391.723 448.469 386.782 466.494zM356.53 407.014l4.167 5.411c-1.867 14.333-3.041 23.354-7.005 53.945-4.932-17.935-8.499-33.907-10.764-48.305L356.53 407.014zM317.673 257.379c0-19.859 17.993-39.963 52.383-39.963 34.372 0 52.357 20.195 52.357 40.156.005 1.039.133 29.388.137 30.342-11.236-5.79-12.575-15.982-15.69-21.578-2.67-6.082-9.42-9.049-15.72-6.903-14.39 4.91-27.81 4.907-42.226-.005-6.188-2.105-13.089.925-15.713 6.905-3.104 5.581-4.47 15.785-15.664 21.576C317.586 278.891 317.673 261.073 317.673 257.379zM334.614 353.737c-2.375-4.126-4.721-12.143-7.175-24.512-.214-1.083-1.088-1.912-2.179-2.07-4.99-.725-4.412-1.693-4.538-2.82-.252-2.225-.633-5.583-4.119-11.134-3.211-5.164-4.508-11.718-3.15-15.936 1.067-3.322 2.949-2.982 4.151-3.692 15.396-6.396 17.527-20.35 20.368-25.15 1.546-3.526 5.629-5.309 9.262-4.068 15.557 5.306 30.042 5.306 45.589.005 3.704-1.264 7.696.481 9.267 4.065l4.017 9.166c4.622 10.539 15.578 16.688 18.942 16.841.829.511 1.477 1.371 1.917 2.596 1.498 4.172.216 10.821-3.125 16.178-3.392 5.484-3.786 8.825-4.048 11.037-.161 1.37.263 2.259-4.978 3.041-1.081.163-1.945.981-2.166 2.052-1.627 7.907-4.144 19.041-7.238 24.416-3.704 6.537-19.806 18.502-23.157 19.925-7.46 3.404-16.987 3.368-24.525-.023C354.45 372.244 338.351 360.246 334.614 353.737zM355.632 378.422c8.869 3.984 19.977 4.005 28.72.023 2.249-.955 8.759-5.436 14.779-10.558.267 2.834.613 5.39 1.036 7.714-5.268 2.438-23.567 11.056-29.5 13.827h-.811c-4.69-2.178-14.18-6.637-29.532-13.81.402-2.26.733-4.721.991-7.418C347.212 373.177 353.462 377.488 355.632 378.422zM360.163 505.91h-.948c-7.162-10.555-41.997-61.896-53.026-78.151-1.162-1.716-.864-4.03.699-5.388l11.355-9.916c1.335-1.163 1.141-3.319-.412-4.215-2.932-2.045-6.187-2.472-6.399-5.792-.086-1.391.498-2.67 1.62-3.516 6.346-4.838 15.735-11.995 21.642-16.498C334.58 421.526 348.051 468.483 360.163 505.91zM234.544 490.94v-25.305c0-22.671 14.281-43.222 35.534-51.14l36.265-13.506c-.077.589-.147 1.181-.109 1.788.375 5.901 5.501 7.853 5.838 8.154l-8.604 7.516c-3.549 3.079-4.231 8.339-1.586 12.237 5.217 7.692-18.9-27.865 51.025 75.227H249.539C241.271 505.91 234.544 499.195 234.544 490.94zM505.934 490.94c0 8.255-6.727 14.97-14.998 14.97H387.59l51.047-75.227c2.659-3.921 1.973-9.183-1.581-12.232l-8.611-7.521c.457-.409 5.413-2.111 5.812-8.111.041-.624-.025-1.234-.105-1.84l36.249 13.515c21.253 7.91 35.534 28.461 35.534 51.14V490.94zM191.38 456.756c-26.091-16.084-41.938-43.601-42.76-73.999h8.456c8.776-.005 13.261-10.426 7.282-16.806l-39.576-42.195c-1.876-1.993-4.528-3.14-7.274-3.14-.003 0-.003 0-.003 0-2.746 0-5.4 1.144-7.282 3.143L70.64 365.956c-5.996 6.392-1.474 16.803 7.277 16.803h8.525c1.361 51.335 43.333 92.6 95.163 92.6.003 0 .003 0 .005 0 6.358 0 12.375-.284 14.22-7.559C196.935 463.445 195.189 459.11 191.38 456.756zM190.782 466.519c-1.029 4.058-4.953 3.633-9.173 3.633-.003 0-.003 0-.005 0-49.741 0-89.997-40.245-89.991-89.996 0-1.437-1.167-2.604-2.604-2.604H77.916c-4.216 0-6.356-4.972-3.478-8.034l39.579-42.193c.913-.969 2.151-1.503 3.488-1.503s2.573.534 3.481 1.5l39.574 42.19c2.864 3.059.747 8.037-3.483 8.037h-11.093c-1.437 0-2.601 1.164-2.604 2.601-.041 33.246 16.882 63.539 45.266 81.037C190.869 462.563 191.207 464.844 190.782 466.519z"/></svg>